<svg width="23" height="22" viewBox="0 0 23 22" fill="none" xmlns="http://www.w3.org/2000/svg">
<path fill-rule="evenodd" clip-rule="evenodd" d="M5.47162 1.90338C5.80112 2.23288 5.80112 2.76712 5.47162 3.09662L3.53699 5.03125H13.875C17.4475 5.03125 20.3437 7.9274 20.3437 11.5C20.3437 15.0725 17.4475 17.9687 13.875 17.9687H6.00001C5.53401 17.9687 5.15626 17.591 5.15626 17.125C5.15626 16.659 5.53401 16.2812 6.00001 16.2812H13.875C16.5156 16.2812 18.6562 14.1406 18.6562 11.5C18.6562 8.85939 16.5156 6.71875 13.875 6.71875H3.53699L5.47162 8.65338C5.80112 8.98288 5.80112 9.51707 5.47162 9.84659C5.14212 10.1761 4.60788 10.1761 4.27838 9.84659L0.903376 6.47162C0.573875 6.14212 0.573875 5.60788 0.903376 5.27838L4.27838 1.90338C4.60788 1.57387 5.14212 1.57387 5.47162 1.90338Z" fill="black"/>
</svg>
